#define fd435cfde8a8415d9f025e06c68ad5e7W2O9m5WsUkBXRBjE_width 49
#define fd435cfde8a8415d9f025e06c68ad5e7W2O9m5WsUkBXRBjE_height 25
static char fd435cfde8a8415d9f025e06c68ad5e7W2O9m5WsUkBXRBjE_bits[] = {
  0xFF, 0xFF, 0xFF, 0xFF, 0xFF, 0x0F, 0x00, 0x05, 0x40, 0x00, 0x04, 0x40, 
  0x18, 0x00, 0x01, 0x00, 0x00, 0x00, 0x00, 0x08, 0x00, 0x01, 0x00, 0x00, 
  0x00, 0x00, 0x18, 0x00, 0x01, 0x00, 0x00, 0x00, 0x00, 0x08, 0x00, 0x01, 
  0x00, 0x00, 0x00, 0x00, 0x78, 0x00, 0x01, 0x00, 0x00, 0x00, 0x00, 0xF0, 
  0x01, 0x01, 0x00, 0x40, 0x00, 0x00, 0x00, 0x01, 0x01, 0x00, 0xC0, 0x01, 
  0x00, 0x00, 0x01, 0x01, 0x00, 0xC0, 0x07, 0x00, 0x00, 0x01, 0x03, 0x40, 
  0xC0, 0x0F, 0x00, 0x00, 0x01, 0x01, 0x80, 0xC7, 0x3F, 0x00, 0x80, 0x01, 
  0x01, 0x00, 0xFE, 0xFF, 0x00, 0x00, 0x01, 0x01, 0x00, 0xFC, 0xA3, 0x03, 
  0x00, 0x01, 0x01, 0x00, 0xF0, 0x03, 0x00, 0x00, 0x01, 0x01, 0x00, 0xC0, 
  0x07, 0x00, 0x00, 0x01, 0x01, 0x00, 0x00, 0x07, 0x00, 0x00, 0x01, 0x01, 
  0x00, 0x00, 0x06, 0x00, 0x00, 0x01, 0x01, 0x00, 0x00, 0x00, 0x00, 0xF0, 
  0x01, 0x01, 0x00, 0x00, 0x00, 0x00, 0x98, 0x00, 0x01, 0x00, 0x00, 0x00, 
  0x00, 0x08, 0x00, 0x01, 0x00, 0x00, 0x00, 0x00, 0x18, 0x00, 0x01, 0x00, 
  0x00, 0x00, 0x00, 0x18, 0x00, 0x85, 0x20, 0x20, 0x08, 0x08, 0x08, 0x00, 
  0xFF, 0xFF, 0xFF, 0xFF, 0xFF, 0x0F, 0x00, };
