#define ebcea80eca2e4d52899f5ade8e9b4aeaB1r2DNtaANh92GKe_width 25
#define ebcea80eca2e4d52899f5ade8e9b4aeaB1r2DNtaANh92GKe_height 49
static char ebcea80eca2e4d52899f5ade8e9b4aeaB1r2DNtaANh92GKe_bits[] = {
  0xC0, 0xFF, 0x07, 0x00, 0x60, 0x40, 0x0C, 0x00, 0x60, 0x00, 0x0C, 0x00, 
  0x40, 0x00, 0x04, 0x00, 0x7A, 0x00, 0x6C, 0x00, 0x1F, 0x00, 0xF8, 0x01, 
  0x01, 0x00, 0x00, 0x01, 0x01, 0x00, 0x00, 0x01, 0x01, 0x00, 0x00, 0x01, 
  0x01, 0x00, 0x00, 0x01, 0x03, 0x00, 0x00, 0x01, 0x01, 0x00, 0x80, 0x01, 
  0x01, 0x00, 0x00, 0x01, 0x01, 0x00, 0x00, 0x01, 0x01, 0x00, 0x00, 0x01, 
  0x01, 0x20, 0x00, 0x01, 0x01, 0x20, 0x00, 0x01, 0x01, 0x30, 0x00, 0x01, 
  0x01, 0x30, 0x00, 0x01, 0x01, 0x18, 0x80, 0x01, 0x01, 0x18, 0x00, 0x01, 
  0x01, 0x1C, 0x00, 0x01, 0x03, 0x9E, 0x03, 0x01, 0x01, 0xFE, 0x03, 0x01, 
  0x01, 0xFF, 0x01, 0x01, 0x01, 0xFF, 0x00, 0x01, 0x81, 0xFF, 0x00, 0x01, 
  0x01, 0x70, 0x80, 0x01, 0x01, 0x70, 0x00, 0x01, 0x01, 0x30, 0x00, 0x01, 
  0x01, 0x30, 0x00, 0x01, 0x01, 0x18, 0x00, 0x01, 0x01, 0x18, 0x00, 0x01, 
  0x01, 0x08, 0x00, 0x01, 0x03, 0x00, 0x00, 0x01, 0x01, 0x04, 0x00, 0x01, 
  0x01, 0x00, 0x00, 0x01, 0x01, 0x00, 0x00, 0x01, 0x01, 0x00, 0x00, 0x01, 
  0x01, 0x00, 0x80, 0x01, 0x01, 0x00, 0x00, 0x01, 0x01, 0x00, 0x00, 0x01, 
  0x01, 0x00, 0x00, 0x01, 0x01, 0x00, 0x00, 0x01, 0x01, 0x00, 0x00, 0x01, 
  0x01, 0x00, 0x00, 0x01, 0x01, 0x00, 0x00, 0x01, 0x25, 0x08, 0x88, 0x01, 
  0xFF, 0xFF, 0xFF, 0x01, };
