#define 8555b54c90414401d25f26bfc81fd3d9Hd2vpJNCsqTtNhzg_width 50
#define 8555b54c90414401d25f26bfc81fd3d9Hd2vpJNCsqTtNhzg_height 50
static char 8555b54c90414401d25f26bfc81fd3d9Hd2vpJNCsqTtNhzg_bits[] = {
  0x00, 0x00, 0x00, 0x00, 0x00, 0x00, 0x00, 0x00, 0x00, 0x00, 0x00, 0x00, 
  0x00, 0x00, 0x00, 0x00, 0x00, 0x00, 0x00, 0x00, 0x00, 0x00, 0x00, 0x00, 
  0x00, 0x00, 0x00, 0x00, 0x00, 0x00, 0x00, 0x00, 0x00, 0x00, 0x00, 0x00, 
  0x00, 0x00, 0x00, 0x00, 0x00, 0x00, 0x00, 0x00, 0x00, 0x00, 0x00, 0x00, 
  0x00, 0x00, 0x00, 0x00, 0x00, 0x00, 0x00, 0x00, 0x24, 0x29, 0x94, 0x50, 
  0x92, 0x01, 0x00, 0xFE, 0xFF, 0xFF, 0xFF, 0xFF, 0x07, 0x00, 0x17, 0x18, 
  0x05, 0x89, 0x21, 0x06, 0x00, 0x02, 0x00, 0x00, 0x00, 0x00, 0x06, 0x00, 
  0x02, 0x00, 0x00, 0x00, 0x00, 0x06, 0x00, 0x43, 0x00, 0x00, 0x00, 0x00, 
  0x04, 0x00, 0xC2, 0x00, 0x00, 0x00, 0x00, 0x04, 0x00, 0xC6, 0x00, 0x00, 
  0x00, 0x00, 0xFE, 0x01, 0xC2, 0x00, 0x00, 0x00, 0x00, 0xDE, 0x03, 0x47, 
  0x00, 0x60, 0x00, 0x00, 0x04, 0x01, 0xC2, 0x00, 0xE0, 0x00, 0x00, 0x04, 
  0x01, 0xC2, 0x00, 0xF0, 0x01, 0x00, 0x06, 0x03, 0xC3, 0x00, 0xB0, 0x01, 
  0x00, 0x86, 0x01, 0xC6, 0x00, 0x18, 0x03, 0x00, 0x0C, 0x03, 0xC2, 0x00, 
  0x0C, 0x03, 0x00, 0x04, 0x03, 0xC3, 0x00, 0x0C, 0x06, 0x00, 0x06, 0x01, 
  0xC2, 0x00, 0x06, 0x0C, 0x00, 0x04, 0x03, 0xC3, 0x00, 0x46, 0x0C, 0x00, 
  0x9E, 0x01, 0xC2, 0x00, 0x43, 0x18, 0x00, 0xFE, 0x03, 0xC6, 0x00, 0xE3, 
  0x18, 0x00, 0x0C, 0x00, 0x43, 0x80, 0x41, 0x30, 0x00, 0x04, 0x00, 0x02, 
  0xC0, 0x60, 0x30, 0x00, 0x06, 0x00, 0x02, 0xC0, 0x40, 0x60, 0x00, 0x06, 
  0x00, 0x07, 0x60, 0x40, 0xC0, 0x80, 0x03, 0x00, 0xFE, 0x7F, 0x00, 0xC0, 
  0xFF, 0x01, 0x00, 0xEE, 0x3A, 0x00, 0x80, 0x6F, 0x00, 0x00, 0x00, 0x18, 
  0x40, 0x80, 0x01, 0x00, 0x00, 0x00, 0x18, 0x40, 0x00, 0x03, 0x00, 0x00, 
  0x00, 0x0C, 0x00, 0x00, 0x06, 0x00, 0x00, 0x00, 0x06, 0x00, 0x00, 0x06, 
  0x00, 0x00, 0x00, 0x06, 0x00, 0x00, 0x0C, 0x00, 0x00, 0x00, 0xDF, 0xF6, 
  0x77, 0x0F, 0x00, 0x00, 0x00, 0xFF, 0xFF, 0xFF, 0x1F, 0x00, 0x00, 0x00, 
  0x00, 0x00, 0x00, 0x00, 0x00, 0x00, 0x00, 0x00, 0x00, 0x00, 0x00, 0x00, 
  0x00, 0x00, 0x00, 0x00, 0x00, 0x00, 0x00, 0x00, 0x00, 0x00, 0x00, 0x00, 
  0x00, 0x00, 0x00, 0x00, 0x00, 0x00, 0x00, 0x00, 0x00, 0x00, 0x00, 0x00, 
  0x00, 0x00, 0x00, 0x00, 0x00, 0x00, 0x00, 0x00, 0x00, 0x00, 0x00, 0x00, 
  0x00, 0x00, 0x00, 0x00, 0x00, 0x00, 0x00, 0x00, 0x00, 0x00, 0x00, 0x00, 
  0x00, 0x00, };
