#define c95f718b5708407eb9f1df56a3d196bfJ8v1OB8XUaHOxufj_width 50
#define c95f718b5708407eb9f1df56a3d196bfJ8v1OB8XUaHOxufj_height 50
static char c95f718b5708407eb9f1df56a3d196bfJ8v1OB8XUaHOxufj_bits[] = {
  0x00, 0x00, 0x00, 0x00, 0x00, 0x00, 0x00, 0x00, 0x00, 0x00, 0x00, 0x00, 
  0x00, 0x00, 0x00, 0x00, 0x00, 0x00, 0x00, 0x00, 0x00, 0x00, 0x00, 0x00, 
  0x00, 0x00, 0x00, 0x00, 0x00, 0x00, 0x00, 0x00, 0x00, 0x00, 0x00, 0x00, 
  0x00, 0x00, 0x00, 0x00, 0x00, 0x00, 0x00, 0xA8, 0xAA, 0xA6, 0x69, 0x01, 
  0x00, 0x00, 0xFF, 0xFF, 0xFF, 0xFF, 0x01, 0x00, 0x00, 0xFE, 0xFF, 0xFF, 
  0xFF, 0x03, 0x00, 0x00, 0xFF, 0xFF, 0xFF, 0xFF, 0x01, 0x00, 0x00, 0x20, 
  0x00, 0x08, 0x00, 0x00, 0x00, 0x00, 0x00, 0x00, 0x03, 0x00, 0x00, 0x00, 
  0x00, 0x00, 0x80, 0x07, 0x00, 0x00, 0x00, 0x00, 0x00, 0xC0, 0x1F, 0x00, 
  0x00, 0x00, 0x00, 0x00, 0xF0, 0x3F, 0x00, 0x00, 0x00, 0x00, 0x00, 0xF8, 
  0x7F, 0x00, 0x00, 0x00, 0x00, 0x00, 0xFC, 0xFF, 0x00, 0x00, 0x00, 0x00, 
  0x00, 0xFE, 0xFF, 0x01, 0x00, 0x00, 0x00, 0x00, 0xBF, 0xF7, 0x03, 0x00, 
  0x00, 0x00, 0xC0, 0x8F, 0xC7, 0x07, 0x00, 0x00, 0x00, 0xE0, 0x87, 0x87, 
  0x1F, 0x00, 0x00, 0x00, 0xF0, 0x83, 0x07, 0x3F, 0x00, 0x00, 0x00, 0xF0, 
  0x81, 0x07, 0x3E, 0x00, 0x00, 0x00, 0x60, 0x80, 0x07, 0x1C, 0x00, 0x00, 
  0x00, 0x40, 0x80, 0x07, 0x10, 0x00, 0x00, 0x00, 0x00, 0x80, 0x07, 0x00, 
  0x00, 0x00, 0x00, 0x00, 0x80, 0x07, 0x00, 0x00, 0x00, 0x00, 0x00, 0x80, 
  0x07, 0x00, 0x00, 0x00, 0x00, 0x00, 0x80, 0x07, 0x00, 0x00, 0x00, 0x00, 
  0x00, 0x80, 0x07, 0x00, 0x00, 0x00, 0x00, 0x00, 0x80, 0x07, 0x00, 0x00, 
  0x00, 0x00, 0x00, 0x80, 0x07, 0x00, 0x00, 0x00, 0x00, 0x00, 0x80, 0x07, 
  0x00, 0x00, 0x00, 0x00, 0x00, 0x80, 0x07, 0x00, 0x00, 0x00, 0x00, 0x00, 
  0x80, 0x07, 0x00, 0x00, 0x00, 0x00, 0x00, 0x80, 0x07, 0x00, 0x00, 0x00, 
  0x00, 0x00, 0x80, 0x07, 0x00, 0x00, 0x00, 0x00, 0x00, 0x80, 0x07, 0x00, 
  0x00, 0x00, 0x00, 0x00, 0x80, 0x07, 0x00, 0x00, 0x00, 0x00, 0x00, 0x80, 
  0x07, 0x00, 0x00, 0x00, 0x00, 0x00, 0x80, 0x07, 0x00, 0x00, 0x00, 0x00, 
  0x00, 0x80, 0x07, 0x00, 0x00, 0x00, 0x00, 0x00, 0x80, 0x07, 0x00, 0x00, 
  0x00, 0x00, 0x00, 0x80, 0x02, 0x00, 0x00, 0x00, 0x00, 0x00, 0x00, 0x00, 
  0x00, 0x00, 0x00, 0x00, 0x00, 0x00, 0x00, 0x00, 0x00, 0x00, 0x00, 0x00, 
  0x00, 0x00, 0x00, 0x00, 0x00, 0x00, 0x00, 0x00, 0x00, 0x00, 0x00, 0x00, 
  0x00, 0x00, 0x00, 0x00, 0x00, 0x00, 0x00, 0x00, 0x00, 0x00, 0x00, 0x00, 
  0x00, 0x00, };
