#define 68536828d7734062e02f22697961a014VF2tbsi57HlcDCoM_width 50
#define 68536828d7734062e02f22697961a014VF2tbsi57HlcDCoM_height 50
static char 68536828d7734062e02f22697961a014VF2tbsi57HlcDCoM_bits[] = {
  0x00, 0xC0, 0xBE, 0x37, 0x00, 0x00, 0x00, 0x00, 0xE0, 0xFF, 0x7F, 0x00, 
  0x00, 0x00, 0x00, 0xC0, 0xFF, 0x7F, 0x00, 0x00, 0x00, 0x00, 0x00, 0x98, 
  0x03, 0x00, 0x00, 0x00, 0x00, 0x00, 0x98, 0x03, 0x00, 0x00, 0x00, 0x00, 
  0x40, 0xBC, 0x03, 0x00, 0x00, 0x00, 0x00, 0xE0, 0xFF, 0xFF, 0x00, 0x00, 
  0x00, 0x00, 0xE0, 0xFF, 0xFF, 0x00, 0x00, 0x00, 0x00, 0xE0, 0x00, 0xC0, 
  0x00, 0x00, 0x00, 0x08, 0x7D, 0x00, 0xC0, 0x37, 0x00, 0x00, 0x98, 0x7F, 
  0x00, 0xC0, 0x7F, 0x1E, 0x00, 0x1C, 0x7B, 0x00, 0xC0, 0x3E, 0x7E, 0x00, 
  0x18, 0x03, 0x00, 0x00, 0x70, 0x7F, 0x00, 0x9C, 0x03, 0x00, 0x00, 0x30, 
  0x66, 0x00, 0x18, 0x03, 0x00, 0x00, 0xF0, 0xE7, 0x00, 0x1C, 0x03, 0x00, 
  0x00, 0xF0, 0xE7, 0x00, 0x1C, 0x03, 0x00, 0x00, 0xA0, 0xC7, 0x00, 0x98, 
  0x03, 0x00, 0x00, 0x00, 0xC6, 0x00, 0xF8, 0x03, 0x00, 0x20, 0x00, 0xC7, 
  0x00, 0xFC, 0x03, 0x00, 0xF8, 0x01, 0xC6, 0x01, 0x98, 0x03, 0x00, 0xFC, 
  0x03, 0xC7, 0x00, 0x1C, 0x03, 0x00, 0x1C, 0x07, 0xC2, 0x01, 0x98, 0x03, 
  0x00, 0x0C, 0x07, 0xC0, 0x00, 0x1C, 0x03, 0x00, 0x0C, 0x06, 0xC0, 0x00, 
  0x18, 0x03, 0x00, 0x6C, 0x06, 0xE0, 0x00, 0x1C, 0x03, 0x00, 0xEE, 0xF7, 
  0xC3, 0x00, 0x98, 0x27, 0x08, 0x6C, 0xF7, 0xE7, 0x00, 0x1C, 0xFF, 0x3F, 
  0xEC, 0x76, 0xE7, 0x00, 0x18, 0xFF, 0x3F, 0x6E, 0x36, 0x67, 0x00, 0x00, 
  0x00, 0x70, 0xEC, 0x77, 0x7E, 0x00, 0x00, 0x00, 0xE0, 0x6C, 0x76, 0x3F, 
  0x00, 0x00, 0x00, 0xC0, 0xED, 0x37, 0x3A, 0x00, 0x00, 0x00, 0x80, 0xEF, 
  0x7F, 0x00, 0x00, 0x00, 0x00, 0x80, 0x6F, 0x3E, 0x00, 0x00, 0x00, 0x00, 
  0x00, 0x6E, 0x07, 0x00, 0x00, 0x00, 0x00, 0x00, 0x6E, 0x06, 0x00, 0x00, 
  0x00, 0x00, 0x00, 0xE6, 0x0E, 0x00, 0x00, 0x00, 0x00, 0x00, 0xF7, 0x0C, 
  0x00, 0x00, 0x00, 0x00, 0x00, 0xF3, 0x1D, 0x00, 0x00, 0x00, 0x00, 0x00, 
  0xFB, 0x9D, 0x00, 0x00, 0x00, 0x00, 0x30, 0xF3, 0xDD, 0x01, 0x00, 0x00, 
  0x00, 0x30, 0xF7, 0x8C, 0x01, 0x00, 0x00, 0x00, 0x10, 0x0E, 0x0E, 0x00, 
  0x00, 0x00, 0x00, 0x00, 0xBE, 0x07, 0x00, 0x00, 0x00, 0x00, 0x00, 0xF8, 
  0x03, 0x00, 0x00, 0x00, 0x00, 0x00, 0xE1, 0x18, 0x00, 0x00, 0x00, 0x00, 
  0x80, 0x03, 0x38, 0x00, 0x00, 0x00, 0x00, 0x80, 0x41, 0x10, 0x00, 0x00, 
  0x00, 0x00, 0x00, 0xE0, 0x00, 0x00, 0x00, 0x00, 0x00, 0x00, 0xC0, 0x00, 
  0x00, 0x00, };
