#define 7a2ae3cb6a2c42f5d5e1985dc2115ca3gIihZuY5LqOOelMO_width 50
#define 7a2ae3cb6a2c42f5d5e1985dc2115ca3gIihZuY5LqOOelMO_height 50
static char 7a2ae3cb6a2c42f5d5e1985dc2115ca3gIihZuY5LqOOelMO_bits[] = {
  0x00, 0x00, 0x00, 0x00, 0x00, 0x00, 0x00, 0x00, 0x00, 0x00, 0x00, 0x00, 
  0x00, 0x00, 0x00, 0x00, 0x00, 0x00, 0x00, 0x00, 0x00, 0x00, 0x00, 0x00, 
  0x00, 0x00, 0x00, 0x00, 0x00, 0x00, 0x00, 0x00, 0x00, 0x00, 0x00, 0x00, 
  0x00, 0x00, 0x00, 0x00, 0x00, 0x00, 0x00, 0x00, 0x00, 0x00, 0x00, 0x00, 
  0x00, 0x00, 0x00, 0x00, 0x00, 0x00, 0x00, 0x00, 0x00, 0x00, 0x63, 0x0C, 
  0x03, 0x00, 0x00, 0x00, 0x00, 0x63, 0x9C, 0x03, 0x00, 0x00, 0x00, 0x00, 
  0xE7, 0x1C, 0x03, 0x00, 0x00, 0x00, 0x00, 0x00, 0x00, 0x00, 0x00, 0x00, 
  0x00, 0x00, 0x84, 0x80, 0x04, 0x00, 0x00, 0x00, 0xC0, 0xFF, 0xFF, 0x0F, 
  0x00, 0x00, 0x00, 0xC0, 0xFF, 0xFF, 0x0F, 0x00, 0x00, 0x00, 0xC5, 0xFF, 
  0xFF, 0x4F, 0x01, 0x00, 0x80, 0xCF, 0xFF, 0xFF, 0xCF, 0x07, 0x00, 0xC0, 
  0xCD, 0xFF, 0xFF, 0x0F, 0x0F, 0x00, 0xC0, 0xC0, 0x4F, 0xE9, 0x0F, 0x0E, 
  0x00, 0x00, 0xC0, 0x07, 0xC0, 0x0F, 0x00, 0x00, 0x00, 0xCB, 0x0F, 0xC0, 
  0x8F, 0x02, 0x00, 0x80, 0xCF, 0x0F, 0xC0, 0xE7, 0x07, 0x00, 0xC0, 0xC7, 
  0x07, 0xC0, 0x8F, 0x07, 0x00, 0xC0, 0xC0, 0x0F, 0x80, 0x0F, 0x0C, 0x00, 
  0x00, 0xC0, 0x0F, 0x80, 0x07, 0x08, 0x00, 0x00, 0xCB, 0x07, 0xC0, 0xCF, 
  0x02, 0x00, 0x80, 0xCF, 0x0F, 0xC0, 0xCF, 0x07, 0x00, 0xC0, 0xC5, 0x07, 
  0xC0, 0x4F, 0x07, 0x00, 0xC0, 0xC1, 0x0F, 0xC0, 0x0F, 0x0C, 0x00, 0x00, 
  0xC0, 0xFF, 0xFF, 0x0F, 0x00, 0x00, 0x00, 0xC9, 0xFF, 0xFF, 0x4F, 0x02, 
  0x00, 0x80, 0xCF, 0xFF, 0xFF, 0xCF, 0x07, 0x00, 0x80, 0xC9, 0xFF, 0xFF, 
  0x4F, 0x0F, 0x00, 0xC0, 0xC1, 0xFF, 0xFF, 0x0F, 0x0C, 0x00, 0xC0, 0x80, 
  0xB5, 0x5D, 0x06, 0x0C, 0x00, 0x00, 0x00, 0x00, 0x00, 0x00, 0x00, 0x00, 
  0x00, 0x00, 0x61, 0x90, 0x01, 0x00, 0x00, 0x00, 0x00, 0x67, 0x0C, 0x03, 
  0x00, 0x00, 0x00, 0x00, 0xE3, 0x9C, 0x03, 0x00, 0x00, 0x00, 0x00, 0x63, 
  0x1C, 0x03, 0x00, 0x00, 0x00, 0x00, 0xE7, 0x8C, 0x01, 0x00, 0x00, 0x00, 
  0x00, 0x63, 0x1C, 0x03, 0x00, 0x00, 0x00, 0x00, 0x00, 0x00, 0x00, 0x00, 
  0x00, 0x00, 0x00, 0x00, 0x00, 0x00, 0x00, 0x00, 0x00, 0x00, 0x00, 0x00, 
  0x00, 0x00, 0x00, 0x00, 0x00, 0x00, 0x00, 0x00, 0x00, 0x00, 0x00, 0x00, 
  0x00, 0x00, 0x00, 0x00, 0x00, 0x00, 0x00, 0x00, 0x00, 0x00, 0x00, 0x00, 
  0x00, 0x00, 0x00, 0x00, 0x00, 0x00, 0x00, 0x00, 0x00, 0x00, 0x00, 0x00, 
  0x00, 0x00, };
