#define b2798a6aa00e4593c15442d64425397cauANqhYPTbYD2LA7_width 50
#define b2798a6aa00e4593c15442d64425397cauANqhYPTbYD2LA7_height 50
static char b2798a6aa00e4593c15442d64425397cauANqhYPTbYD2LA7_bits[] = {
  0x00, 0x00, 0x38, 0x00, 0x00, 0x00, 0x00, 0x00, 0x00, 0xFC, 0x00, 0x00, 
  0x00, 0x00, 0x00, 0x00, 0x87, 0x01, 0x00, 0x00, 0x00, 0x00, 0x00, 0x03, 
  0x03, 0x00, 0x00, 0x00, 0x00, 0x00, 0x03, 0x03, 0x00, 0x00, 0x00, 0x00, 
  0x80, 0x01, 0x03, 0x00, 0x00, 0x00, 0x00, 0x00, 0x01, 0x81, 0x01, 0x00, 
  0x00, 0x00, 0x00, 0x03, 0xE3, 0x01, 0x00, 0x00, 0x00, 0x00, 0x03, 0x03, 
  0x00, 0x00, 0x00, 0x00, 0x00, 0x01, 0x01, 0x00, 0x00, 0x00, 0x00, 0x00, 
  0x03, 0x03, 0x00, 0x00, 0x00, 0x00, 0x00, 0x01, 0x03, 0x00, 0x00, 0x00, 
  0x48, 0x04, 0x01, 0x03, 0x51, 0x04, 0x00, 0xFE, 0x3F, 0x03, 0xE3, 0xF1, 
  0x0F, 0x00, 0x16, 0x11, 0x03, 0x42, 0xA0, 0x1C, 0x00, 0x03, 0x00, 0x01, 
  0x03, 0x00, 0x08, 0x00, 0x03, 0x00, 0x33, 0x03, 0x00, 0x18, 0x00, 0x03, 
  0x00, 0x33, 0x03, 0x00, 0x08, 0x00, 0x01, 0x00, 0x13, 0x02, 0x00, 0x18, 
  0x00, 0x03, 0x00, 0x31, 0xE3, 0x01, 0xF8, 0x01, 0x01, 0x00, 0x33, 0xC3, 
  0x01, 0xF8, 0x01, 0x03, 0x00, 0x31, 0x03, 0x00, 0x18, 0x03, 0x03, 0x00, 
  0x31, 0x02, 0x00, 0x08, 0x03, 0x03, 0x00, 0x33, 0x03, 0x00, 0x08, 0x03, 
  0x01, 0x00, 0x13, 0x01, 0x00, 0x08, 0x03, 0x03, 0x00, 0x31, 0xC3, 0x01, 
  0x18, 0x01, 0x01, 0x00, 0x33, 0xE1, 0x01, 0x08, 0x03, 0x03, 0x00, 0x31, 
  0x03, 0x00, 0x18, 0x03, 0x03, 0x00, 0x31, 0x03, 0x00, 0x18, 0x03, 0x03, 
  0x80, 0x33, 0x03, 0x00, 0x08, 0x01, 0x01, 0x00, 0x11, 0x02, 0x00, 0x08, 
  0x03, 0x03, 0x00, 0x33, 0x03, 0x00, 0xB8, 0x01, 0x01, 0x00, 0x33, 0x03, 
  0x00, 0xF8, 0x00, 0x03, 0x80, 0x33, 0x03, 0x00, 0x18, 0x00, 0x03, 0xC0, 
  0x30, 0x0E, 0x00, 0x18, 0x00, 0x03, 0x80, 0x10, 0x0C, 0x00, 0x08, 0x00, 
  0x03, 0x00, 0x38, 0x18, 0x00, 0x18, 0x00, 0x46, 0x00, 0xF8, 0x10, 0x44, 
  0x0C, 0x00, 0xFE, 0x33, 0xE0, 0x30, 0xFF, 0x0F, 0x00, 0x58, 0x10, 0x80, 
  0x31, 0x54, 0x02, 0x00, 0x00, 0x10, 0x86, 0x31, 0x00, 0x00, 0x00, 0x00, 
  0x30, 0x86, 0x31, 0x00, 0x00, 0x00, 0x00, 0x30, 0xCE, 0x30, 0x00, 0x00, 
  0x00, 0x00, 0x30, 0xFC, 0x10, 0x00, 0x00, 0x00, 0x00, 0x20, 0x20, 0x18, 
  0x00, 0x00, 0x00, 0x00, 0x60, 0x00, 0x08, 0x00, 0x00, 0x00, 0x00, 0xC0, 
  0x00, 0x0E, 0x00, 0x00, 0x00, 0x00, 0xC0, 0x03, 0x07, 0x00, 0x00, 0x00, 
  0x00, 0x00, 0xFF, 0x03, 0x00, 0x00, 0x00, 0x00, 0x00, 0x78, 0x00, 0x00, 
  0x00, 0x00, };
