#define a9509c293ac049fac056fa5adb7d26d2UBtV4k5zTTPkFd6S_width 50
#define a9509c293ac049fac056fa5adb7d26d2UBtV4k5zTTPkFd6S_height 50
static char a9509c293ac049fac056fa5adb7d26d2UBtV4k5zTTPkFd6S_bits[] = {
  0x00, 0x00, 0x00, 0x00, 0x00, 0x00, 0x00, 0x00, 0x00, 0x00, 0x00, 0x00, 
  0x00, 0x00, 0x00, 0x00, 0x00, 0x00, 0x00, 0x00, 0x00, 0x00, 0x00, 0x00, 
  0x00, 0x00, 0x00, 0x00, 0x00, 0x00, 0x00, 0x00, 0x00, 0x00, 0x00, 0x00, 
  0x00, 0x00, 0x00, 0x00, 0x00, 0x00, 0x00, 0x0F, 0xFC, 0xFF, 0xC0, 0x07, 
  0x00, 0x80, 0x1B, 0xDC, 0xDA, 0xE0, 0x02, 0x00, 0x80, 0x19, 0x0C, 0x80, 
  0x60, 0x06, 0x00, 0xE0, 0x7F, 0x04, 0xC0, 0xF0, 0x0F, 0x00, 0x40, 0x20, 
  0x0C, 0x80, 0x10, 0x18, 0x00, 0xF0, 0xFF, 0xFF, 0xFF, 0xFF, 0x3F, 0x00, 
  0xF8, 0x9B, 0xDB, 0xBE, 0xED, 0x77, 0x00, 0x18, 0x44, 0x10, 0x00, 0x01, 
  0x60, 0x00, 0xF0, 0xFF, 0xFF, 0xFF, 0xFF, 0x3F, 0x00, 0x30, 0x00, 0x00, 
  0x00, 0x00, 0x30, 0x00, 0x30, 0x00, 0x00, 0x00, 0x00, 0x30, 0x00, 0x20, 
  0x00, 0x00, 0x00, 0x00, 0x10, 0x00, 0x30, 0x00, 0x00, 0x00, 0x00, 0x30, 
  0x00, 0x30, 0x00, 0x80, 0x0F, 0x00, 0x30, 0x00, 0x30, 0x00, 0x80, 0x1F, 
  0x00, 0x30, 0x00, 0x10, 0x00, 0xC0, 0x08, 0x00, 0x30, 0x00, 0x30, 0x00, 
  0xC0, 0x0C, 0x00, 0x20, 0x00, 0x30, 0x00, 0x40, 0x04, 0x00, 0x30, 0x00, 
  0x30, 0x00, 0x60, 0x1C, 0x00, 0x30, 0x00, 0x30, 0x00, 0x20, 0x3C, 0x00, 
  0x30, 0x00, 0x30, 0x00, 0x30, 0x18, 0x00, 0x20, 0x00, 0x30, 0x00, 0xF0, 
  0x09, 0x00, 0x30, 0x00, 0x20, 0x00, 0x80, 0x0C, 0x00, 0x30, 0x00, 0x30, 
  0x00, 0xC0, 0x06, 0x00, 0x10, 0x00, 0x30, 0x00, 0xC0, 0x03, 0x00, 0x30, 
  0x00, 0x30, 0x00, 0xC0, 0x01, 0x00, 0x30, 0x00, 0x30, 0x00, 0xC0, 0x01, 
  0x00, 0x30, 0x00, 0x10, 0x00, 0xC0, 0x00, 0x00, 0x30, 0x00, 0x30, 0x00, 
  0x60, 0x00, 0x00, 0x30, 0x00, 0x30, 0x00, 0x20, 0x00, 0x00, 0x30, 0x00, 
  0x30, 0x00, 0x00, 0x00, 0x00, 0x20, 0x00, 0x30, 0x00, 0x00, 0x00, 0x00, 
  0x30, 0x00, 0x20, 0x00, 0x00, 0x00, 0x00, 0x30, 0x00, 0x30, 0x00, 0x00, 
  0x00, 0x00, 0x30, 0x00, 0xF0, 0xFF, 0xFF, 0xFF, 0xFF, 0x3F, 0x00, 0x18, 
  0x60, 0x18, 0x22, 0x22, 0x60, 0x00, 0x78, 0xA7, 0x69, 0x7B, 0x7B, 0x77, 
  0x00, 0xF0, 0xFF, 0xFF, 0xFF, 0xFF, 0x3F, 0x00, 0x00, 0x00, 0x00, 0x00, 
  0x00, 0x00, 0x00, 0x00, 0x00, 0x00, 0x00, 0x00, 0x00, 0x00, 0x00, 0x00, 
  0x00, 0x00, 0x00, 0x00, 0x00, 0x00, 0x00, 0x00, 0x00, 0x00, 0x00, 0x00, 
  0x00, 0x00, 0x00, 0x00, 0x00, 0x00, 0x00, 0x00, 0x00, 0x00, 0x00, 0x00, 
  0x00, 0x00, };
