#define ba94434270894e5cfced18778aac0aa0ljzCIQKsOvpruDPj_width 100
#define ba94434270894e5cfced18778aac0aa0ljzCIQKsOvpruDPj_height 100
static char ba94434270894e5cfced18778aac0aa0ljzCIQKsOvpruDPj_bits[] = {
  0x00, 0x00, 0x00, 0x00, 0x00, 0x00, 0x00, 0x00, 0x00, 0x00, 0x00, 0x00, 
  0x00, 0x00, 0x00, 0x00, 0x00, 0x00, 0x00, 0x00, 0x00, 0x00, 0x00, 0x00, 
  0x00, 0x00, 0x00, 0x00, 0x00, 0x00, 0x00, 0x00, 0x00, 0x00, 0x00, 0x00, 
  0x00, 0x00, 0x00, 0x00, 0x00, 0x00, 0x00, 0x00, 0x00, 0x00, 0x00, 0x00, 
  0x00, 0x00, 0x00, 0x00, 0x00, 0x00, 0x00, 0x00, 0x00, 0x00, 0x00, 0x00, 
  0x00, 0x00, 0x00, 0x00, 0x00, 0x00, 0x00, 0x00, 0x00, 0x00, 0x00, 0x00, 
  0x00, 0x00, 0x00, 0x00, 0x00, 0x00, 0x00, 0x00, 0x00, 0x00, 0x00, 0x00, 
  0x00, 0x00, 0x00, 0x00, 0x00, 0x00, 0x00, 0x00, 0x00, 0x00, 0x00, 0x00, 
  0x00, 0x00, 0x00, 0x00, 0x00, 0x00, 0x00, 0x00, 0x00, 0x00, 0x00, 0x00, 
  0x00, 0x00, 0x00, 0x00, 0x00, 0x00, 0x00, 0x00, 0x00, 0x00, 0x00, 0x00, 
  0x00, 0x00, 0x00, 0x00, 0x00, 0x00, 0x00, 0x00, 0x00, 0x00, 0x00, 0x00, 
  0x00, 0x00, 0x00, 0x00, 0x00, 0x00, 0x00, 0x00, 0x00, 0x00, 0x00, 0x00, 
  0x00, 0x00, 0x00, 0x00, 0x00, 0x00, 0x00, 0x00, 0x00, 0x00, 0x00, 0x00, 
  0x00, 0x00, 0x00, 0x92, 0x66, 0x66, 0x92, 0x2A, 0xA9, 0x02, 0x00, 0x00, 
  0x00, 0x00, 0x00, 0x80, 0xFF, 0xFF, 0xFF, 0xFF, 0xFF, 0xFF, 0x1F, 0x00, 
  0x00, 0x00, 0x00, 0x00, 0xC0, 0x01, 0x00, 0x00, 0x00, 0x00, 0x00, 0x18, 
  0x00, 0x00, 0x00, 0x00, 0x00, 0x40, 0x00, 0x00, 0x00, 0x00, 0x00, 0x00, 
  0x10, 0x00, 0x00, 0x00, 0x00, 0x00, 0x40, 0x00, 0x00, 0x00, 0x00, 0x00, 
  0x00, 0x30, 0x00, 0x00, 0x00, 0x00, 0x00, 0xC0, 0x00, 0x00, 0x00, 0x00, 
  0x00, 0x00, 0x10, 0x00, 0x00, 0x00, 0x00, 0x00, 0x60, 0x00, 0x00, 0x00, 
  0x00, 0x00, 0x00, 0x30, 0x00, 0x00, 0x00, 0x00, 0x00, 0x40, 0x00, 0x00, 
  0x00, 0x00, 0x00, 0x00, 0x10, 0x00, 0x00, 0x00, 0x00, 0x00, 0x40, 0x00, 
  0x00, 0x00, 0x00, 0x00, 0x00, 0x30, 0x00, 0x00, 0x00, 0x00, 0x00, 0xC0, 
  0x00, 0x00, 0x00, 0x00, 0x00, 0x00, 0x10, 0x00, 0x00, 0x00, 0x00, 0x00, 
  0x40, 0xE0, 0xE1, 0x87, 0x1F, 0x3F, 0x3E, 0x10, 0x00, 0x00, 0x00, 0x00, 
  0x00, 0xC0, 0xB0, 0x23, 0xCD, 0x19, 0x29, 0xE6, 0x30, 0x00, 0x00, 0x00, 
  0x00, 0x00, 0xC0, 0x18, 0x20, 0x98, 0x00, 0x01, 0x86, 0x31, 0x00, 0x00, 
  0x00, 0x00, 0x00, 0x40, 0x30, 0x60, 0xD8, 0x00, 0x03, 0x82, 0x11, 0x00, 
  0x00, 0x00, 0x00, 0x00, 0x40, 0xF0, 0x21, 0x8C, 0x07, 0x1F, 0x82, 0x31, 
  0x00, 0x00, 0x00, 0x00, 0x00, 0xC0, 0x80, 0xE3, 0xC7, 0x86, 0x03, 0x06, 
  0x11, 0x00, 0x00, 0x00, 0x00, 0x00, 0x40, 0x00, 0x76, 0xC0, 0x00, 0x01, 
  0x86, 0x31, 0x00, 0x00, 0x00, 0x00, 0x00, 0x40, 0x18, 0x22, 0x80, 0x00, 
  0x01, 0x82, 0x10, 0x00, 0x00, 0x00, 0x00, 0x00, 0xC0, 0x30, 0x23, 0x80, 
  0x15, 0x17, 0xF6, 0x30, 0x00, 0x00, 0x00, 0x00, 0x00, 0x40, 0xE0, 0x61, 
  0x80, 0x1F, 0x7B, 0x1E, 0x10, 0x00, 0x00, 0x00, 0x00, 0x00, 0x40, 0x00, 
  0x00, 0x00, 0x00, 0x00, 0x00, 0x30, 0x00, 0x00, 0x00, 0x00, 0x00, 0xC0, 
  0x00, 0x00, 0x00, 0x00, 0x00, 0x00, 0x10, 0x00, 0x00, 0x00, 0x00, 0x00, 
  0x40, 0x00, 0x00, 0x00, 0x00, 0x00, 0x00, 0x30, 0x00, 0x00, 0x00, 0x00, 
  0x00, 0x40, 0x00, 0x00, 0x00, 0x00, 0x00, 0x00, 0x10, 0x00, 0x00, 0x00, 
  0x00, 0x00, 0xE0, 0x00, 0x00, 0x00, 0x00, 0x00, 0x00, 0x30, 0x00, 0x00, 
  0x00, 0x00, 0x00, 0x40, 0x00, 0x00, 0x00, 0x00, 0x00, 0x00, 0x10, 0x00, 
  0x00, 0x00, 0x00, 0x00, 0x40, 0x00, 0x01, 0x63, 0x20, 0xE6, 0x0F, 0x10, 
  0x00, 0x00, 0x00, 0x00, 0x00, 0x40, 0x80, 0x01, 0x63, 0x70, 0x86, 0x0B, 
  0x30, 0x00, 0x00, 0x00, 0x00, 0x00, 0x40, 0x00, 0x03, 0x63, 0x30, 0x06, 
  0x01, 0x30, 0x00, 0x00, 0x00, 0x00, 0x00, 0xC0, 0x00, 0x01, 0xE2, 0x38, 
  0x06, 0x01, 0x10, 0x00, 0x00, 0x00, 0x00, 0x00, 0x40, 0x00, 0x01, 0xB3, 
  0x79, 0x06, 0x01, 0x30, 0x00, 0x00, 0x00, 0x00, 0x00, 0xC0, 0x00, 0x01, 
  0xA2, 0x2D, 0x02, 0x03, 0x10, 0x00, 0x00, 0x00, 0x00, 0x00, 0x40, 0x00, 
  0x01, 0x63, 0x37, 0x06, 0x01, 0x30, 0x00, 0x00, 0x00, 0x00, 0x00, 0xC0, 
  0x00, 0x03, 0x23, 0x27, 0x82, 0x01, 0x10, 0x00, 0x00, 0x00, 0x00, 0x00, 
  0x40, 0x00, 0x3D, 0x32, 0x22, 0x02, 0x01, 0x30, 0x00, 0x00, 0x00, 0x00, 
  0x00, 0xC0, 0x00, 0x27, 0x21, 0x20, 0x06, 0x01, 0x10, 0x00, 0x00, 0x00, 
  0x00, 0x00, 0x40, 0x00, 0x00, 0x00, 0x00, 0x00, 0x00, 0x30, 0x00, 0x00, 
  0x00, 0x00, 0x00, 0x40, 0x00, 0x00, 0x00, 0x00, 0x00, 0x00, 0x10, 0x00, 
  0x00, 0x00, 0x00, 0x00, 0xC0, 0x00, 0x00, 0x00, 0x00, 0x00, 0x00, 0x30, 
  0x00, 0x00, 0x00, 0x00, 0x00, 0x40, 0x00, 0x00, 0x00, 0x00, 0x00, 0x00, 
  0x10, 0x00, 0x00, 0x00, 0x00, 0x00, 0x40, 0x00, 0x00, 0x00, 0x00, 0x00, 
  0x00, 0x30, 0x00, 0x00, 0x00, 0x00, 0x00, 0xC0, 0x00, 0x00, 0x00, 0x00, 
  0x00, 0x00, 0x10, 0x00, 0x00, 0x00, 0x00, 0x00, 0x40, 0x00, 0x00, 0x00, 
  0x00, 0x00, 0x00, 0x10, 0x00, 0x00, 0x00, 0x00, 0x00, 0xC0, 0x00, 0x80, 
  0x03, 0xE0, 0x1F, 0x00, 0x30, 0x00, 0x00, 0x00, 0x00, 0x00, 0x40, 0x00, 
  0xC0, 0x03, 0xF8, 0x7F, 0x00, 0x30, 0x00, 0x00, 0x00, 0x00, 0x00, 0x40, 
  0x00, 0xF0, 0x03, 0xFC, 0xFF, 0x00, 0x10, 0x00, 0x00, 0x00, 0x00, 0x00, 
  0xC0, 0x00, 0xFC, 0x03, 0x3C, 0xF0, 0x01, 0x30, 0x00, 0x00, 0x00, 0x00, 
  0x00, 0x40, 0x00, 0xFC, 0x03, 0x1E, 0xE0, 0x01, 0x10, 0x00, 0x00, 0x00, 
  0x00, 0x00, 0x40, 0x00, 0x80, 0x03, 0x0F, 0xC0, 0x03, 0x30, 0x00, 0x00, 
  0x00, 0x00, 0x00, 0xC0, 0x00, 0xC0, 0x03, 0x0F, 0xC0, 0x03, 0x10, 0x00, 
  0x00, 0x00, 0x00, 0x00, 0x40, 0x00, 0x80, 0x03, 0x0F, 0x80, 0x03, 0x30, 
  0x00, 0x00, 0x00, 0x00, 0x00, 0x60, 0x00, 0xC0, 0x07, 0x07, 0x80, 0x07, 
  0x10, 0x00, 0x00, 0x00, 0x00, 0x00, 0xC0, 0x00, 0x80, 0x83, 0x0F, 0x80, 
  0x03, 0x30, 0x00, 0x00, 0x00, 0x00, 0x00, 0x40, 0x00, 0xC0, 0x03, 0x07, 
  0x80, 0x07, 0x10, 0x00, 0x00, 0x00, 0x00, 0x00, 0x40, 0x00, 0x80, 0x07, 
  0x0F, 0x80, 0x07, 0x10, 0x00, 0x00, 0x00, 0x00, 0x00, 0xC0, 0x00, 0xC0, 
  0x83, 0x07, 0x80, 0x07, 0x30, 0x00, 0x00, 0x00, 0x00, 0x00, 0x40, 0x00, 
  0xC0, 0x07, 0x07, 0x80, 0x07, 0x30, 0x00, 0x00, 0x00, 0x00, 0x00, 0x40, 
  0x00, 0x80, 0x03, 0x0F, 0xC0, 0x03, 0x10, 0x00, 0x00, 0x00, 0x00, 0x00, 
  0xC0, 0x00, 0x80, 0x03, 0x0F, 0x80, 0x03, 0x30, 0x00, 0x00, 0x00, 0x00, 
  0x00, 0x40, 0x00, 0xC0, 0x03, 0x0F, 0xC0, 0x03, 0x10, 0x00, 0x00, 0x00, 
  0x00, 0x00, 0x40, 0x00, 0x80, 0x03, 0x1E, 0xE0, 0x01, 0x30, 0x00, 0x00, 
  0x00, 0x00, 0x00, 0xC0, 0x00, 0xC0, 0x03, 0x3E, 0xF0, 0x01, 0x10, 0x00, 
  0x00, 0x00, 0x00, 0x00, 0x40, 0x00, 0x80, 0x03, 0xFC, 0xFE, 0x00, 0x30, 
  0x00, 0x00, 0x00, 0x00, 0x00, 0x40, 0x00, 0xC0, 0x03, 0xF0, 0x7F, 0x00, 
  0x10, 0x00, 0x00, 0x00, 0x00, 0x00, 0xE0, 0x00, 0xC0, 0x03, 0xE0, 0x1F, 
  0x00, 0x30, 0x00, 0x00, 0x00, 0x00, 0x00, 0x40, 0x00, 0x00, 0x00, 0x00, 
  0x01, 0x00, 0x10, 0x00, 0x00, 0x00, 0x00, 0x00, 0x40, 0x00, 0x00, 0x00, 
  0x00, 0x00, 0x00, 0x10, 0x00, 0x00, 0x00, 0x00, 0x00, 0x40, 0x00, 0x00, 
  0x00, 0x00, 0x00, 0x00, 0x30, 0x00, 0x00, 0x00, 0x00, 0x00, 0xC0, 0x00, 
  0x00, 0x00, 0x00, 0x00, 0x00, 0x10, 0x00, 0x00, 0x00, 0x00, 0x00, 0x40, 
  0x00, 0x00, 0x00, 0x00, 0x00, 0x00, 0x30, 0x00, 0x00, 0x00, 0x00, 0x00, 
  0xC0, 0x00, 0x00, 0x00, 0x00, 0x00, 0x00, 0x30, 0x00, 0x00, 0x00, 0x00, 
  0x00, 0x40, 0x00, 0x00, 0x00, 0x00, 0x00, 0x00, 0x10, 0x00, 0x00, 0x00, 
  0x00, 0x00, 0xC0, 0x00, 0x00, 0x00, 0x00, 0x00, 0x00, 0x10, 0x00, 0x00, 
  0x00, 0x00, 0x00, 0x80, 0xFF, 0xFF, 0xFB, 0xFF, 0xFF, 0xFF, 0x0F, 0x00, 
  0x00, 0x00, 0x00, 0x00, 0x00, 0xA5, 0x69, 0xBE, 0x9A, 0x9A, 0xBA, 0x06, 
  0x00, 0x00, 0x00, 0x00, 0x00, 0x00, 0x00, 0x00, 0x00, 0x00, 0x00, 0x00, 
  0x00, 0x00, 0x00, 0x00, 0x00, 0x00, 0x00, 0x00, 0x00, 0x00, 0x00, 0x00, 
  0x00, 0x00, 0x00, 0x00, 0x00, 0x00, 0x00, 0x00, 0x00, 0x00, 0x00, 0x00, 
  0x00, 0x00, 0x00, 0x00, 0x00, 0x00, 0x00, 0x00, 0x00, 0x00, 0x00, 0x00, 
  0x00, 0x00, 0x00, 0x00, 0x00, 0x00, 0x00, 0x00, 0x00, 0x00, 0x00, 0x00, 
  0x00, 0x00, 0x00, 0x00, 0x00, 0x00, 0x00, 0x00, 0x00, 0x00, 0x00, 0x00, 
  0x00, 0x00, 0x00, 0x00, 0x00, 0x00, 0x00, 0x00, 0x00, 0x00, 0x00, 0x00, 
  0x00, 0x00, 0x00, 0x00, 0x00, 0x00, 0x00, 0x00, 0x00, 0x00, 0x00, 0x00, 
  0x00, 0x00, 0x00, 0x00, 0x00, 0x00, 0x00, 0x00, 0x00, 0x00, 0x00, 0x00, 
  0x00, 0x00, 0x00, 0x00, 0x00, 0x00, 0x00, 0x00, 0x00, 0x00, 0x00, 0x00, 
  0x00, 0x00, 0x00, 0x00, 0x00, 0x00, 0x00, 0x00, 0x00, 0x00, 0x00, 0x00, 
  0x00, 0x00, 0x00, 0x00, 0x00, 0x00, 0x00, 0x00, 0x00, 0x00, 0x00, 0x00, 
  0x00, 0x00, 0x00, 0x00, 0x00, 0x00, 0x00, 0x00, 0x00, 0x00, 0x00, 0x00, 
  0x00, 0x00, 0x00, 0x00, 0x00, 0x00, 0x00, 0x00, 0x00, 0x00, 0x00, 0x00, 
  0x00, 0x00, 0x00, 0x00, };
