#define 964ee46c34d64a0a961b492d9ec9848eyvVS2jEyVeQ0S85b_width 100
#define 964ee46c34d64a0a961b492d9ec9848eyvVS2jEyVeQ0S85b_height 100
static char 964ee46c34d64a0a961b492d9ec9848eyvVS2jEyVeQ0S85b_bits[] = {
  0x00, 0x00, 0x00, 0x00, 0x00, 0x00, 0x00, 0x00, 0x00, 0x00, 0x00, 0x00, 
  0x00, 0x00, 0x00, 0x00, 0x00, 0x00, 0x00, 0x00, 0x00, 0x00, 0x00, 0x00, 
  0x00, 0x00, 0x00, 0x00, 0x00, 0x00, 0x00, 0x00, 0x00, 0x00, 0x00, 0x00, 
  0x00, 0x00, 0x00, 0x00, 0x00, 0x00, 0x00, 0x00, 0x00, 0x00, 0x00, 0x00, 
  0x00, 0x00, 0x00, 0x00, 0x00, 0x00, 0x00, 0x00, 0x00, 0x80, 0x0F, 0x00, 
  0x00, 0x00, 0x00, 0x00, 0x00, 0x00, 0x00, 0x00, 0x00, 0x00, 0xE0, 0x7F, 
  0x00, 0x00, 0x00, 0x00, 0x00, 0x00, 0x00, 0x00, 0x00, 0x00, 0x00, 0xF0, 
  0xFF, 0x00, 0x00, 0x00, 0x00, 0x00, 0x00, 0x00, 0x00, 0x00, 0x00, 0x00, 
  0xF8, 0xFF, 0x01, 0x00, 0x00, 0x00, 0x00, 0x00, 0x00, 0x00, 0x00, 0x00, 
  0x00, 0xFC, 0xF9, 0x03, 0x00, 0x00, 0x00, 0x00, 0x00, 0x00, 0x00, 0x00, 
  0x00, 0x00, 0x7C, 0xE0, 0x03, 0x00, 0x00, 0x00, 0x00, 0x00, 0x00, 0x00, 
  0x00, 0x00, 0x00, 0x3E, 0xC0, 0x07, 0x00, 0x00, 0x00, 0x00, 0x00, 0x00, 
  0x00, 0x00, 0x00, 0x00, 0x1F, 0x80, 0x0F, 0x00, 0x00, 0x00, 0x00, 0x00, 
  0x00, 0x00, 0x00, 0x00, 0x00, 0x1F, 0x80, 0x0F, 0x00, 0x00, 0x00, 0x00, 
  0x00, 0x00, 0x00, 0x00, 0x00, 0x80, 0x0F, 0x00, 0x1F, 0x00, 0x00, 0x00, 
  0x00, 0x00, 0x00, 0x00, 0x00, 0x00, 0x80, 0x0F, 0x00, 0x1F, 0x00, 0x00, 
  0x00, 0x00, 0x00, 0x00, 0x00, 0x00, 0x00, 0xC0, 0x07, 0x00, 0x3E, 0x00, 
  0x00, 0x00, 0x00, 0x00, 0x00, 0x00, 0x00, 0x00, 0xC0, 0x07, 0x00, 0x3E, 
  0x00, 0x00, 0x00, 0x00, 0x00, 0x00, 0x00, 0x00, 0x00, 0xE0, 0x03, 0x00, 
  0x7C, 0x00, 0x00, 0x00, 0x00, 0x00, 0x00, 0x00, 0x00, 0x00, 0xE0, 0x01, 
  0x00, 0x78, 0x00, 0x00, 0x00, 0x00, 0x00, 0x00, 0x00, 0x00, 0x00, 0xF0, 
  0x01, 0x00, 0xF8, 0x00, 0x00, 0x00, 0x00, 0x00, 0x00, 0x00, 0x00, 0x00, 
  0xF0, 0x01, 0x00, 0xF0, 0x00, 0x00, 0x00, 0x00, 0x00, 0x00, 0x00, 0x00, 
  0x00, 0xF8, 0x00, 0x00, 0xF0, 0x01, 0x00, 0x00, 0x00, 0x00, 0x00, 0x00, 
  0x00, 0x00, 0x7C, 0x00, 0x00, 0xE0, 0x03, 0x00, 0x00, 0x00, 0x00, 0x00, 
  0x00, 0x00, 0x00, 0x7C, 0x00, 0x00, 0xE0, 0x03, 0x00, 0x00, 0x00, 0x00, 
  0x00, 0x00, 0x00, 0x00, 0x3E, 0x00, 0x00, 0xC0, 0x07, 0x00, 0x00, 0x00, 
  0x00, 0x00, 0x00, 0x00, 0x00, 0x3E, 0x00, 0x00, 0xC0, 0x07, 0x00, 0x00, 
  0x00, 0x00, 0x00, 0x00, 0x00, 0x00, 0x1F, 0x00, 0x00, 0x80, 0x0F, 0x00, 
  0x00, 0x00, 0x00, 0x00, 0x00, 0x00, 0x00, 0x1F, 0x00, 0x00, 0x00, 0x0F, 
  0x00, 0x00, 0x00, 0x00, 0x00, 0x00, 0x00, 0x80, 0x0F, 0x00, 0x00, 0x00, 
  0x1F, 0x00, 0x00, 0x00, 0x00, 0x00, 0x00, 0x00, 0x80, 0x07, 0x00, 0x00, 
  0x00, 0x1E, 0x00, 0x00, 0x00, 0x00, 0x00, 0x00, 0x00, 0xC0, 0x07, 0x00, 
  0x00, 0x00, 0x3E, 0x00, 0x00, 0x00, 0x00, 0x00, 0x00, 0x00, 0xE0, 0x03, 
  0x00, 0x00, 0x00, 0x7C, 0x00, 0x00, 0x00, 0x00, 0x00, 0x00, 0x00, 0xE0, 
  0x03, 0x00, 0x00, 0x00, 0x7C, 0x00, 0x00, 0x00, 0x00, 0x00, 0x00, 0x00, 
  0xF0, 0x01, 0xE0, 0xFB, 0x1E, 0xF8, 0x00, 0x00, 0x00, 0x00, 0x00, 0x00, 
  0x00, 0xF0, 0x01, 0xF0, 0xFF, 0x3F, 0xF8, 0x00, 0x00, 0x00, 0x00, 0x00, 
  0x00, 0x00, 0xF8, 0x00, 0xF0, 0xFF, 0x7F, 0xF0, 0x01, 0x00, 0x00, 0x00, 
  0x00, 0x00, 0x00, 0xF8, 0x00, 0xF8, 0xFF, 0x3F, 0xF0, 0x01, 0x00, 0x00, 
  0x00, 0x00, 0x00, 0x00, 0x7C, 0x00, 0xF8, 0xAA, 0x3F, 0xE0, 0x03, 0x00, 
  0x00, 0x00, 0x00, 0x00, 0x00, 0x3C, 0x00, 0x7C, 0x00, 0x3E, 0xC0, 0x03, 
  0x00, 0x00, 0x00, 0x00, 0x00, 0x00, 0x3E, 0x00, 0x7C, 0x00, 0x1E, 0xC0, 
  0x07, 0x00, 0x00, 0x00, 0x00, 0x00, 0x00, 0x1F, 0x00, 0x3C, 0x00, 0x0F, 
  0x80, 0x0F, 0x00, 0x00, 0x00, 0x00, 0x00, 0x00, 0x1F, 0x00, 0x3E, 0x00, 
  0x0F, 0x80, 0x0F, 0x00, 0x00, 0x00, 0x00, 0x00, 0x80, 0x0F, 0x00, 0x3E, 
  0x80, 0x0F, 0x00, 0x1F, 0x00, 0x00, 0x00, 0x00, 0x00, 0x80, 0x0F, 0x00, 
  0x1E, 0x80, 0x0F, 0x00, 0x1F, 0x00, 0x00, 0x00, 0x00, 0x00, 0xC0, 0x07, 
  0x00, 0x1F, 0xC0, 0x07, 0x00, 0x3E, 0x00, 0x00, 0x00, 0x00, 0x00, 0xC0, 
  0x07, 0x00, 0x0F, 0xC0, 0x07, 0x00, 0x3E, 0x00, 0x00, 0x00, 0x00, 0x00, 
  0xE0, 0x03, 0x00, 0x0F, 0xC0, 0x03, 0x00, 0x7C, 0x00, 0x00, 0x00, 0x00, 
  0x00, 0xE0, 0x01, 0x80, 0x0F, 0xE0, 0x03, 0x00, 0x78, 0x00, 0x00, 0x00, 
  0x00, 0x00, 0xF0, 0x01, 0x80, 0x07, 0xE0, 0x03, 0x00, 0xF8, 0x00, 0x00, 
  0x00, 0x00, 0x00, 0xF0, 0x00, 0xC0, 0x07, 0xF0, 0x01, 0x00, 0xF0, 0x00, 
  0x00, 0x00, 0x00, 0x00, 0xF8, 0x00, 0xC0, 0x07, 0xF0, 0x01, 0x00, 0xF0, 
  0x01, 0x00, 0x00, 0x00, 0x00, 0x7C, 0x00, 0xC0, 0x03, 0xF0, 0x00, 0x00, 
  0xE0, 0x03, 0x00, 0x00, 0x00, 0x00, 0x7C, 0x00, 0xC0, 0x03, 0xF8, 0x00, 
  0x00, 0xE0, 0x03, 0x00, 0x00, 0x00, 0x00, 0x3E, 0x00, 0xE0, 0x03, 0x78, 
  0x00, 0x00, 0xC0, 0x07, 0x00, 0x00, 0x00, 0x00, 0x3E, 0x00, 0xE0, 0x01, 
  0xFC, 0xFF, 0x01, 0xC0, 0x07, 0x00, 0x00, 0x00, 0x00, 0x1F, 0x00, 0xF0, 
  0x01, 0xFC, 0xFF, 0x07, 0x80, 0x0F, 0x00, 0x00, 0x00, 0x00, 0x1F, 0x00, 
  0xF0, 0x01, 0xFC, 0xFF, 0x07, 0x00, 0x0F, 0x00, 0x00, 0x00, 0x80, 0x0F, 
  0x00, 0xF0, 0x00, 0xFC, 0xFF, 0x03, 0x00, 0x1F, 0x00, 0x00, 0x00, 0xC0, 
  0x07, 0x00, 0xF8, 0x00, 0xA0, 0xF2, 0x01, 0x00, 0x3E, 0x00, 0x00, 0x00, 
  0xC0, 0x07, 0x00, 0x78, 0x00, 0x00, 0xF8, 0x01, 0x00, 0x3E, 0x00, 0x00, 
  0x00, 0xE0, 0x03, 0x00, 0x78, 0x00, 0x00, 0xFC, 0x00, 0x00, 0x7C, 0x00, 
  0x00, 0x00, 0xE0, 0x03, 0x00, 0x7C, 0x00, 0x00, 0x7E, 0x00, 0x00, 0x7C, 
  0x00, 0x00, 0x00, 0xF0, 0x01, 0x00, 0x7C, 0x59, 0x00, 0x3F, 0x00, 0x00, 
  0xF8, 0x00, 0x00, 0x00, 0xF0, 0x01, 0x00, 0xFE, 0xFF, 0x03, 0x1F, 0x00, 
  0x00, 0xF8, 0x00, 0x00, 0x00, 0xF8, 0x00, 0x00, 0xFE, 0xFF, 0xC3, 0x0F, 
  0x00, 0x00, 0xF0, 0x01, 0x00, 0x00, 0xF8, 0x00, 0x00, 0xFC, 0xFF, 0xC3, 
  0x07, 0x00, 0x00, 0xF0, 0x01, 0x00, 0x00, 0x7C, 0x00, 0x00, 0xF8, 0xFE, 
  0xE1, 0x07, 0x00, 0x00, 0xE0, 0x03, 0x00, 0x00, 0x3C, 0x00, 0x00, 0x00, 
  0xF0, 0xF1, 0x03, 0x00, 0x00, 0xC0, 0x03, 0x00, 0x00, 0x3E, 0x00, 0x00, 
  0x00, 0xF0, 0xF9, 0x01, 0x00, 0x00, 0xC0, 0x07, 0x00, 0x00, 0x1F, 0x00, 
  0x00, 0x00, 0xF0, 0xFC, 0x00, 0x00, 0x00, 0x80, 0x07, 0x00, 0x00, 0x1F, 
  0x00, 0x00, 0x00, 0xF8, 0x7C, 0x00, 0x00, 0x00, 0x80, 0x0F, 0x00, 0x80, 
  0x0F, 0x00, 0x00, 0x00, 0x78, 0x3E, 0x00, 0x00, 0x00, 0x00, 0x1F, 0x00, 
  0x80, 0x0F, 0x00, 0x00, 0x00, 0x7C, 0x1F, 0x00, 0x00, 0x00, 0x00, 0x1F, 
  0x00, 0xC0, 0x07, 0x00, 0x00, 0x00, 0xFC, 0x1F, 0x00, 0x00, 0x00, 0x00, 
  0x3E, 0x00, 0xC0, 0x03, 0x00, 0x00, 0x00, 0xFC, 0x0F, 0x00, 0x00, 0x00, 
  0x00, 0x3E, 0x00, 0xE0, 0x03, 0x00, 0x00, 0x00, 0xFE, 0x07, 0x00, 0x00, 
  0x00, 0x00, 0x7C, 0x00, 0xE0, 0x01, 0x00, 0x00, 0x00, 0xFE, 0x03, 0x00, 
  0x00, 0x00, 0x00, 0x78, 0x00, 0xF0, 0x01, 0x00, 0x00, 0x00, 0xFF, 0x01, 
  0x00, 0x00, 0x00, 0x00, 0xF8, 0x00, 0xF8, 0x00, 0x00, 0x00, 0x00, 0xFF, 
  0x00, 0x00, 0x00, 0x00, 0x00, 0xF0, 0x01, 0xF8, 0x00, 0x00, 0x00, 0x00, 
  0x7F, 0x00, 0x00, 0x00, 0x00, 0x00, 0xF0, 0x01, 0x7C, 0x00, 0x00, 0x00, 
  0x80, 0x7F, 0x00, 0x00, 0x00, 0x00, 0x00, 0xE0, 0x03, 0x7C, 0x00, 0x00, 
  0x00, 0x80, 0x3F, 0x00, 0x00, 0x00, 0x00, 0x00, 0xE0, 0x03, 0x3E, 0x00, 
  0x00, 0x00, 0xC0, 0x1F, 0x00, 0x00, 0x00, 0x00, 0x00, 0xC0, 0x07, 0x3E, 
  0x00, 0x00, 0x00, 0xC0, 0x0F, 0x00, 0x00, 0x00, 0x00, 0x00, 0xC0, 0x07, 
  0x1F, 0x00, 0x00, 0x00, 0xC0, 0x07, 0x00, 0x00, 0x00, 0x00, 0x00, 0x80, 
  0x0F, 0x1F, 0x00, 0x00, 0x00, 0xE0, 0x03, 0x00, 0x00, 0x00, 0x00, 0x00, 
  0x80, 0x0F, 0x0F, 0x00, 0x00, 0x00, 0xC0, 0x03, 0x00, 0x00, 0x00, 0x00, 
  0x00, 0x00, 0x0F, 0x0F, 0x00, 0x00, 0x00, 0x80, 0x00, 0x00, 0x00, 0x00, 
  0x00, 0x00, 0x00, 0x0F, 0x0F, 0x00, 0x00, 0x00, 0x00, 0x00, 0x00, 0x00, 
  0x00, 0x00, 0x00, 0x00, 0x0F, 0x1F, 0x00, 0x00, 0x00, 0x00, 0x00, 0x00, 
  0x00, 0x00, 0x00, 0x00, 0x80, 0x0F, 0x3E, 0x00, 0x00, 0x00, 0x00, 0x00, 
  0x00, 0x00, 0x00, 0x00, 0x00, 0xC0, 0x07, 0xFE, 0x94, 0x52, 0x4A, 0x94, 
  0x52, 0x4A, 0x94, 0x4A, 0x94, 0x25, 0xFA, 0x07, 0xFC, 0xFF, 0xFF, 0xFF, 
  0xFF, 0xFF, 0xFF, 0xFF, 0xFF, 0xFF, 0xFF, 0xFF, 0x03, 0xF8, 0xFF, 0xFF, 
  0xFF, 0xFF, 0xFF, 0xFF, 0xFF, 0xFF, 0xFF, 0xFF, 0xFF, 0x01, 0xF0, 0xFF, 
  0xFF, 0xFF, 0xFF, 0xFF, 0xFF, 0xFF, 0xFF, 0xFF, 0xFF, 0xFF, 0x00, 0x80, 
  0xFF, 0xFF, 0xFF, 0xFF, 0xFF, 0xFF, 0xFF, 0xFF, 0xFF, 0xFF, 0x3F, 0x00, 
  0x00, 0x00, 0x00, 0x00, 0x00, 0x00, 0x00, 0x00, 0x00, 0x00, 0x00, 0x00, 
  0x00, 0x00, 0x00, 0x00, 0x00, 0x00, 0x00, 0x00, 0x00, 0x00, 0x00, 0x00, 
  0x00, 0x00, 0x00, 0x00, 0x00, 0x00, 0x00, 0x00, 0x00, 0x00, 0x00, 0x00, 
  0x00, 0x00, 0x00, 0x00, 0x00, 0x00, 0x00, 0x00, 0x00, 0x00, 0x00, 0x00, 
  0x00, 0x00, 0x00, 0x00, };
